<svg width="80" height="80" viewBox="0 0 80 80" fill="none" xmlns="http://www.w3.org/2000/svg"><rect x="0.5" y="0.5" width="79" height="79" rx="4.5" fill="#09090A" stroke="#29292E"></rect><path d="M27.9824 40.4V48.248C27.9824 50.146 28.9324 51.916 30.5104 52.966L33.7244 55.104C37.5264 57.632 42.4744 57.632 46.2744 55.104L49.4884 52.966C51.0684 51.916 52.0164 50.144 52.0164 48.248V40.4" stroke="#04D361" stroke-width="3" stroke-linecap="round" stroke-linejoin="round"></path><path fill-rule="evenodd" clip-rule="evenodd" d="M35.4063 24.19L23.0583 31.05C20.4623 32.492 20.4623 36.224 23.0583 37.666L35.4063 44.526C38.2623 46.112 41.7363 46.112 44.5943 44.526L56.9423 37.666C59.5383 36.224 59.5383 32.492 56.9423 31.05L44.5943 24.19C41.7363 22.604 38.2643 22.604 35.4063 24.19Z" stroke="#8257E6" stroke-width="3" stroke-linecap="round" stroke-linejoin="round"></path></svg>